<?xml version="1.0" standalone="no"?>
<!DOCTYPE svg PUBLIC "-//W3C//DTD SVG 20010904//EN"
 "http://www.w3.org/TR/2001/REC-SVG-20010904/DTD/svg10.dtd">
<svg version="1.0" xmlns="http://www.w3.org/2000/svg"
 width="512.000000pt" height="512.000000pt" viewBox="0 0 512.000000 512.000000"
 preserveAspectRatio="xMidYMid meet">
<metadata>
Created by potrace 1.14, written by Peter Selinger 2001-2017
</metadata>
<g transform="translate(0.000000,512.000000) scale(0.100000,-0.100000)"
fill="#000000" stroke="none">
<path d="M2510 5117 c-3 -3 -48 -8 -100 -12 -389 -27 -693 -112 -1027 -285
-241 -124 -422 -258 -623 -460 -293 -292 -495 -619 -620 -1000 -60 -183 -81
-279 -119 -550 -9 -66 -7 -474 2 -520 3 -14 8 -49 11 -78 8 -71 42 -239 67
-327 11 -38 21 -74 23 -80 12 -55 95 -259 152 -375 193 -389 479 -720 834
-967 277 -192 631 -343 940 -402 30 -6 64 -12 75 -14 20 -5 87 -14 155 -22 83
-9 230 -19 285 -19 79 0 320 20 355 29 8 2 35 7 60 10 25 4 65 11 90 17 25 5
56 12 70 14 53 10 240 68 330 102 78 30 325 148 389 187 69 42 107 67 181 119
47 33 90 65 96 71 6 5 39 33 73 60 89 72 287 279 356 371 32 43 61 81 65 84 7
7 72 106 122 188 112 183 248 511 284 687 2 11 7 34 11 50 4 17 7 32 8 35 1 3
5 25 9 50 5 25 11 56 13 70 35 185 39 597 7 775 -39 223 -75 364 -130 514
-137 365 -321 650 -603 931 -330 328 -726 552 -1181 666 -49 12 -151 33 -185
38 -23 4 -50 8 -60 10 -22 4 -127 15 -215 22 -30 2 -86 7 -125 10 -38 3 -72 4
-75 1z"/>
</g>
</svg>
